<svg xmlns="http://www.w3.org/2000/svg" width="120" height="50" viewBox="0 0 120 50" fill="none">
<path d="M6.07155 43.9401C7.99645 45.8613 10.2816 47.3853 12.7966 48.4251C15.3117 49.4648 18.0072 50 20.7294 50C23.4517 50 26.1472 49.4648 28.6622 48.4251C31.1772 47.3853 33.4624 45.8613 35.3873 43.9401C37.3122 42.0189 38.8391 39.7381 39.8809 37.2279C40.9226 34.7177 41.4588 32.0273 41.4588 29.3103C41.4588 26.5933 40.9226 23.9029 39.8809 21.3927C38.8391 18.8826 37.3122 16.6017 35.3873 14.6805L20.7294 29.3103L6.07155 43.9401Z" fill="url(#paint0_linear_4411_56623)"/>
<path d="M44.0245 6.05985C42.0996 4.13864 39.8144 2.61465 37.2994 1.5749C34.7844 0.535152 32.0889 -4.53438e-07 29.3667 0C26.6444 4.53438e-07 23.9489 0.535154 21.4339 1.57491C18.9189 2.61466 16.6337 4.13865 14.7088 6.05986C12.7839 7.98107 11.257 10.2619 10.2152 12.7721C9.17346 15.2822 8.63728 17.9726 8.63728 20.6896C8.63728 23.4066 9.17346 26.097 10.2152 28.6072C11.257 31.1174 12.7839 33.3982 14.7088 35.3194L29.3667 20.6896L44.0245 6.05985Z" fill="#1C53E7"/>
<path d="M71.5121 29.5345C71.5121 27.8276 71.1234 26.4569 70.1388 25.5001C69.3614 24.7242 68.1695 24.2069 66.5111 23.9742L64.2827 23.6638C63.6349 23.5863 63.2463 23.3535 63.0131 23.1207C62.728 22.8363 62.6503 22.5001 62.6503 22.2673C62.6503 21.4656 63.2981 20.5604 64.8787 20.5604C65.682 20.5604 67.2108 20.4828 68.3768 21.6466L71.2271 18.8018C69.6465 17.2242 67.6513 16.6035 65.0083 16.6035C60.8106 16.6035 58.2712 19.0604 58.2712 22.4225C58.2712 24.0001 58.6858 25.2414 59.5409 26.1207C60.3701 26.9742 61.6138 27.5173 63.2463 27.7501L65.4747 28.0604C66.0706 28.138 66.4593 28.319 66.6925 28.5518C66.9516 28.8363 67.0553 29.1983 67.0553 29.638C67.0553 30.6983 66.2002 31.2932 64.4123 31.2932C62.9353 31.2932 61.2511 30.9569 60.2923 30L57.3902 32.8966C59.2559 34.8104 61.562 35.3276 64.3864 35.3276C68.2731 35.3276 71.5121 33.2845 71.5121 29.5345Z" fill="#1C53E7"/>
<path d="M87.822 28.7069V16.7587H83.2874V28.6035C83.2874 30.3104 82.3028 31.2932 80.7999 31.2932C79.297 31.2932 78.3642 30.3104 78.3642 28.6035V16.7587H73.8297V28.7069C73.8297 32.7414 76.965 35.3276 80.7999 35.3276C84.6348 35.3276 87.822 32.7414 87.822 28.7069Z" fill="#1C53E7"/>
<path d="M99.97 22.6811C99.97 23.638 99.2445 24.5432 98.0007 24.5432H95.4354V20.819H98.0007C99.2445 20.819 99.97 21.7242 99.97 22.6811ZM105.489 35.1725L101.499 27.4914C102.95 26.7673 104.505 25.1897 104.505 22.6811C104.505 19.6552 102.302 16.7587 98.208 16.7587H90.9009V35.1725H95.4354V28.319H96.9642L100.229 35.1725H105.489Z" fill="#1C53E7"/>
<path d="M120 35.1725V31.138H111.993V27.9052H118.834V23.8707H111.993V20.7932H120V16.7587H107.459V35.1725H120Z" fill="#1C53E7"/>
<defs>
<linearGradient id="paint0_linear_4411_56623" x1="26.2573" y1="17.5862" x2="38.3946" y2="45.6261" gradientUnits="userSpaceOnUse">
<stop/>
<stop offset="0.0220404" stop-color="#020611"/>
<stop offset="0.1025" stop-color="#0A1B49"/>
<stop offset="0.1833" stop-color="#102D79"/>
<stop offset="0.2628" stop-color="#163BA1"/>
<stop offset="0.3406" stop-color="#1A46BF"/>
<stop offset="0.4164" stop-color="#1D4FD5"/>
<stop offset="0.4892" stop-color="#1E53E3"/>
<stop offset="0.5555" stop-color="#1F55E7"/>
</linearGradient>
</defs>
</svg>